<?xml version="1.0" encoding="UTF-8"?>

<svg xmlns="http://www.w3.org/2000/svg" width="180px" height="180px" viewBox="0 0 180 180" version="1.1">

  <g id="surface1" fill="#FFFFFF">

    <path d="M 95.625 80.15625 C 99.839844 81.816406 103.632812 83.945312 106.875 87.1875 C 106.851562 89.40625 106.71875 91.625 106.546875 93.839844 C 106.433594 95.269531 106.324219 96.699219 106.210938 98.175781 C 106.082031 99.742188 105.953125 101.304688 105.820312 102.921875 C 105.628906 105.324219 105.628906 105.324219 105.433594 107.773438 C 103.847656 127.1875 101.851562 146.5625 99.84375 165.9375 C 92.882812 165.9375 85.921875 165.9375 78.75 165.9375 C 76.371094 161.179688 76.472656 155.765625 75.976562 150.523438 C 75.851562 149.257812 75.730469 147.988281 75.605469 146.683594 C 75.34375 143.992188 75.089844 141.296875 74.835938 138.605469 C 74.449219 134.535156 74.050781 130.46875 73.648438 126.402344 C 70.617188 95.003906 70.617188 95.003906 71.71875 87.1875 C 78.449219 79.570312 85.941406 79.058594 95.625 80.15625 Z M 95.625 80.15625 "/>

    <path d="M 125.15625 87.1875 C 129.460938 90.132812 130.574219 91.941406 131.792969 97.019531 C 132.648438 104.039062 131.015625 110.609375 129.554688 117.460938 C 129.273438 118.851562 128.992188 120.242188 128.699219 121.675781 C 127.796875 126.089844 126.871094 130.5 125.945312 134.914062 C 125.328125 137.914062 124.714844 140.917969 124.097656 143.921875 C 122.59375 151.265625 121.066406 158.601562 119.53125 165.9375 C 114.425781 165.9375 109.320312 165.9375 104.0625 165.9375 C 103.945312 156.996094 104.351562 148.269531 105.195312 139.371094 C 105.3125 138.097656 105.429688 136.820312 105.550781 135.503906 C 105.800781 132.828125 106.054688 130.152344 106.3125 127.476562 C 106.699219 123.390625 107.070312 119.300781 107.441406 115.214844 C 107.6875 112.601562 107.933594 109.992188 108.183594 107.378906 C 108.289062 106.164062 108.398438 104.949219 108.511719 103.695312 C 109.09375 97.792969 109.65625 92.503906 112.5 87.1875 C 116.980469 84.949219 120.378906 86.117188 125.15625 87.1875 Z M 125.15625 87.1875 "/>

    <path d="M 66.09375 87.1875 C 68.386719 89.480469 68.003906 92.230469 68.304688 95.398438 C 68.445312 96.847656 68.585938 98.300781 68.730469 99.792969 C 68.949219 102.164062 68.949219 102.164062 69.175781 104.578125 C 69.40625 106.996094 69.40625 106.996094 69.640625 109.460938 C 69.96875 112.878906 70.289062 116.292969 70.609375 119.710938 C 71.101562 124.949219 71.601562 130.1875 72.101562 135.421875 C 72.414062 138.734375 72.730469 142.046875 73.042969 145.359375 C 73.191406 146.933594 73.339844 148.507812 73.496094 150.128906 C 73.632812 151.585938 73.769531 153.046875 73.90625 154.550781 C 74.089844 156.476562 74.089844 156.476562 74.273438 158.445312 C 74.53125 161.71875 74.53125 161.71875 74.53125 165.9375 C 69.425781 165.9375 64.320312 165.9375 59.0625 165.9375 C 56.722656 159.402344 55.15625 152.84375 53.820312 146.046875 C 53.609375 144.964844 53.394531 143.882812 53.171875 142.769531 C 52.722656 140.488281 52.277344 138.210938 51.832031 135.929688 C 51.15625 132.472656 50.460938 129.023438 49.769531 125.570312 C 49.332031 123.34375 48.894531 121.117188 48.460938 118.886719 C 48.253906 117.871094 48.046875 116.855469 47.835938 115.8125 C 44.359375 97.605469 44.359375 97.605469 48.953125 90 C 54.613281 84.828125 58.921875 85.859375 66.09375 87.1875 Z M 66.09375 87.1875 "/>

    <path d="M 60.382812 57.390625 C 64.6875 57.65625 64.6875 57.65625 67.5 60.46875 C 67.675781 61.628906 67.847656 62.789062 68.027344 63.984375 C 68.316406 65.144531 68.609375 66.304688 68.90625 67.5 C 69.835938 67.933594 70.761719 68.371094 71.71875 68.820312 C 74.53125 70.3125 74.53125 70.3125 75.9375 74.355469 C 75.9375 78.75 75.9375 78.75 74.09375 82.179688 C 68.152344 85.632812 62.820312 84.074219 56.25 82.96875 C 54.316406 82.703125 52.382812 82.4375 50.449219 82.179688 C 49.113281 81.976562 47.78125 81.773438 46.40625 81.5625 C 45.265625 77.78125 45.265625 77.78125 45 73.125 C 48.25 69.523438 48.25 69.523438 52.03125 66.09375 C 53.796875 62.390625 53.796875 62.390625 54.84375 59.0625 C 56.25 57.65625 56.25 57.65625 60.382812 57.390625 Z M 60.382812 57.390625 "/>

    <path d="M 62.402344 13.796875 C 66.378906 14.003906 69.378906 14.34375 73.125 15.46875 C 74.953125 15.773438 74.953125 15.773438 76.816406 16.085938 C 80.15625 16.875 80.15625 16.875 82.96875 19.6875 C 82.441406 24.785156 82.441406 24.785156 81.5625 29.53125 C 78.777344 29.996094 75.992188 30.460938 73.125 30.9375 C 72.195312 34.1875 71.269531 37.433594 70.3125 40.78125 C 66.171875 42.046875 64.0625 42.527344 60.03125 40.78125 C 56.585938 36.699219 57.46875 33.3125 57.65625 28.125 C 56.726562 27.195312 55.800781 26.269531 54.84375 25.3125 C 54.492188 21.09375 54.492188 21.09375 54.84375 16.875 C 57.65625 14.0625 57.65625 14.0625 62.402344 13.796875 Z M 62.402344 13.796875 "/>

    <path d="M 104.0625 37 C 108.28125 37.96875 108.28125 37.96875 112.5 39.375 C 113.660156 39.257812 114.820312 39.144531 116.015625 39.023438 C 119.53125 39.375 119.53125 39.375 122.257812 42.453125 C 123.75 46.40625 123.75 46.40625 123.132812 50.273438 C 120.9375 53.4375 120.9375 53.4375 116.542969 54.578125 C 114.542969 54.710938 114.542969 54.710938 112.5 54.84375 C 112.324219 55.683594 112.152344 56.527344 111.972656 57.390625 C 111.09375 60.46875 111.09375 60.46875 108.28125 64.6875 C 104.589844 64.953125 104.589844 64.953125 101.25 64.6875 C 99.011719 60.957031 98.339844 58.363281 97.734375 53.964844 C 97.5 49.128906 97.5 49.128906 94.21875 46.40625 C 94.484375 42.890625 94.484375 42.890625 95.625 39.375 C 99.84375 36.5625 99.84375 36.5625 104.0625 37 Z M 104.0625 37 "/>

    <path d="M 92.8125 47.8125 C 95.460938 50.460938 94.789062 54.238281 95.09375 57.78125 C 95.429688 60.796875 95.429688 60.796875 98.4375 63.28125 C 97.910156 68.378906 97.910156 68.378906 97.03125 73.125 C 92.375 74.09375 92.375 74.09375 87.1875 74.53125 C 84.8125 72.507812 84.8125 72.507812 82.96875 70.3125 C 81.113281 70.3125 79.257812 70.3125 77.34375 70.3125 C 77.34375 69.382812 77.34375 68.457031 77.34375 67.5 C 76.445312 67.179688 75.546875 66.863281 74.617188 66.53125 C 71.71875 64.6875 71.71875 64.6875 70.488281 61.171875 C 70.429688 60.011719 70.371094 58.851562 70.3125 57.65625 C 73.125 54.84375 73.125 54.84375 75.9375 54.316406 C 79.023438 53.707031 79.023438 53.707031 80.332031 50.625 C 80.941406 49.234375 80.941406 49.234375 81.5625 47.8125 C 85.617188 45.785156 88.476562 46.890625 92.8125 47.8125 Z M 92.8125 47.8125 "/>

    <path d="M 125.15625 60.46875 C 127.441406 65.125 127.441406 65.125 129.375 70.3125 C 130.417969 71.296875 131.464844 72.285156 132.539062 73.300781 C 135 75.9375 135 75.9375 135 79.628906 C 133.59375 82.96875 133.59375 82.96875 131.132812 84.992188 C 127.96875 85.78125 127.96875 85.78125 124.890625 84.460938 C 119.851562 82.558594 116.417969 83.378906 111.214844 84.378906 C 108.28125 84.375 108.28125 84.375 105.78125 82.523438 C 104.0625 80.15625 104.0625 80.15625 104.148438 76.640625 C 105.46875 73.125 105.46875 73.125 108.195312 71.101562 C 112.101562 68.144531 112.507812 65.0625 113.90625 60.46875 C 118.214844 58.316406 120.636719 58.992188 125.15625 60.46875 Z M 125.15625 60.46875 "/>

  </g>

</svg>

